<?xml version="1.0" standalone="no"?>
<!DOCTYPE svg PUBLIC "-//W3C//DTD SVG 20010904//EN"
 "http://www.w3.org/TR/2001/REC-SVG-20010904/DTD/svg10.dtd">
<svg version="1.0" xmlns="http://www.w3.org/2000/svg"
 width="67.000000pt" height="67.000000pt" viewBox="0 0 67.000000 67.000000"
 preserveAspectRatio="xMidYMid meet">

<g transform="translate(0.000000,67.000000) scale(0.100000,-0.100000)"
fill="#000000" stroke="none">
<path d="M257 626 c-32 -13 -65 -30 -74 -37 -24 -20 -53 -89 -52 -124 l1 -30
7 30 c21 85 67 139 130 151 41 9 39 -2 -4 -20 -19 -8 -38 -22 -41 -31 -3 -8
-12 -15 -19 -15 -12 0 -25 -21 -25 -42 0 -6 14 -8 33 -5 17 2 46 -1 64 -8 l31
-13 7 74 c7 71 25 104 25 45 0 -15 3 -49 6 -74 l6 -45 32 13 c17 7 46 10 64 8
18 -3 32 -1 32 5 0 21 -13 42 -25 42 -7 0 -16 7 -19 15 -3 9 -23 23 -43 32
-26 12 -33 18 -21 20 25 6 86 -26 107 -56 11 -14 26 -49 35 -76 l16 -50 -4 42
c-6 63 -39 108 -99 137 -77 38 -104 40 -170 12z"/>
<path d="M161 444 c-21 -22 -46 -61 -56 -89 -30 -83 -65 -159 -78 -167 -23
-14 29 -63 114 -105 83 -42 86 -43 188 -43 101 0 106 1 187 40 48 23 91 51
100 65 16 24 15 29 -13 93 -17 37 -38 89 -48 115 -9 27 -34 67 -56 89 -37 39
-39 40 -86 34 -61 -9 -105 -9 -166 0 -45 6 -49 4 -86 -32z m304 14 c38 -17 48
-88 13 -88 -9 0 -9 3 0 12 29 29 6 65 -51 78 -22 6 -25 8 -10 9 12 1 34 -4 48
-11z m-122 -45 c-7 -2 -19 -2 -25 0 -7 3 -2 5 12 5 14 0 19 -2 13 -5z m0 -20
c-7 -2 -19 -2 -25 0 -7 3 -2 5 12 5 14 0 19 -2 13 -5z m117 -3 c0 -5 -10 -10
-22 -9 -22 0 -22 1 -3 9 11 5 21 9 23 9 1 1 2 -3 2 -9z m0 -30 c0 -5 -12 -10
-27 -9 l-28 1 25 8 c14 4 26 8 28 9 1 1 2 -3 2 -9z m-17 -26 c20 -3 37 -9 37
-13 0 -4 -12 -18 -26 -32 l-26 -24 -28 35 c-34 40 -37 53 -12 46 9 -3 34 -8
55 -12z m-93 -64 c0 -22 -4 -40 -10 -40 -5 0 -10 18 -10 40 0 22 5 40 10 40 6
0 10 -18 10 -40z m30 -22 c0 -10 -4 -18 -10 -18 -5 0 -10 15 -10 33 0 24 3 28
10 17 5 -8 10 -23 10 -32z m25 -8 c3 -5 1 -10 -4 -10 -6 0 -11 5 -11 10 0 6 2
10 4 10 3 0 8 -4 11 -10z m45 -14 c0 -3 -4 -8 -10 -11 -5 -3 -10 -1 -10 4 0 6
5 11 10 11 6 0 10 -2 10 -4z m-90 -36 c-13 -11 -26 -20 -30 -20 -4 0 -17 9
-30 20 l-23 20 53 0 53 0 -23 -20z m95 -51 c13 -37 14 -54 6 -62 -6 -6 -12 -9
-15 -6 -6 7 -18 119 -13 119 3 0 13 -23 22 -51z"/>
</g>
</svg>
